<?xml version="1.0" standalone="no"?>
<!DOCTYPE svg PUBLIC "-//W3C//DTD SVG 20010904//EN"
 "http://www.w3.org/TR/2001/REC-SVG-20010904/DTD/svg10.dtd">
<svg version="1.0" xmlns="http://www.w3.org/2000/svg"
 width="1024.000000pt" height="1024.000000pt" viewBox="0 0 1024.000000 1024.000000"
 preserveAspectRatio="xMidYMid meet">
<metadata>
Created by potrace 1.15, written by Peter Selinger 2001-2017
</metadata>
<g transform="translate(0.000000,1024.000000) scale(0.100000,-0.100000)"
fill="#000000" stroke="none">
<path d="M0 5120 l0 -5120 5120 0 5120 0 0 5120 0 5120 -5120 0 -5120 0 0
-5120z m7435 3011 c257 -56 446 -161 640 -356 169 -170 255 -316 320 -540 35
-122 45 -197 45 -350 0 -153 -10 -228 -45 -350 -64 -221 -151 -370 -315 -535
-177 -179 -338 -275 -566 -339 -150 -42 -254 -54 -403 -47 -323 16 -596 135
-827 358 -194 188 -317 416 -368 687 -24 124 -21 346 5 474 54 265 177 488
372 675 202 193 453 309 747 346 75 9 307 -4 395 -23z m-4085 -5 c637 -129
1077 -716 1020 -1358 -21 -237 -88 -423 -222 -619 -185 -271 -497 -471 -828
-530 -111 -20 -356 -18 -458 4 -267 57 -471 166 -658 352 -247 246 -374 553
-374 905 0 347 126 649 374 896 198 197 430 316 701 359 110 18 337 13 445 -9z"/>
<path d="M7060 7028 c-57 -31 -90 -85 -90 -151 0 -130 134 -216 248 -158 46
23 67 46 87 94 20 48 19 83 -4 133 -42 93 -151 130 -241 82z"/>
<path d="M2995 7021 c-98 -59 -124 -173 -59 -258 30 -39 94 -73 139 -73 106 0
191 108 171 215 -8 40 -55 99 -97 121 -40 20 -118 18 -154 -5z"/>
</g>
</svg>
